<svg xmlns="http://www.w3.org/2000/svg" xmlns:xlink="http://www.w3.org/1999/xlink" viewBox="0 0 2357.72 1080"><defs><style>.cls-1,.cls-5,.cls-8{fill:none;}.cls-2{clip-path:url(#clip-path);}.cls-3{fill:#fef9e3;}.cls-4{clip-path:url(#clip-path-2);}.cls-5{stroke:#65c8d0;}.cls-10,.cls-11,.cls-12,.cls-5,.cls-8,.cls-9{stroke-miterlimit:10;}.cls-5,.cls-8{stroke-width:3px;}.cls-6{clip-path:url(#clip-path-3);}.cls-7{clip-path:url(#clip-path-4);}.cls-8{stroke:#dd835a;}.cls-9{fill:#fdf1b9;}.cls-10,.cls-11,.cls-12,.cls-9{stroke:#000;stroke-width:0.25px;}.cls-10{fill:#65c8d0;}.cls-11,.cls-13{fill:#dd835a;}.cls-12{fill:#f2f2f2;}</style><clipPath id="clip-path" transform="translate(154.34)"><rect class="cls-1" width="1920.17" height="1075.65"/></clipPath><clipPath id="clip-path-2" transform="translate(154.34)"><circle class="cls-1" cx="346.82" cy="379.68" r="188.46"/></clipPath><clipPath id="clip-path-3" transform="translate(154.34)"><circle class="cls-1" cx="1871.31" cy="423.18" r="188.46"/></clipPath><clipPath id="clip-path-4" transform="translate(154.34)"><circle class="cls-1" cx="147.7" cy="351.16" r="188.46"/></clipPath></defs><g id="Layer_2" data-name="Layer 2"><g id="frames"><g class="cls-2"><rect class="cls-3" x="154.34" width="1920" height="1080"/><g class="cls-4"><line class="cls-5" x1="200.19" y1="380.3" x2="501.79" y2="78.7"/><line class="cls-5" x1="215.2" y1="395.32" x2="516.8" y2="93.72"/><line class="cls-5" x1="230.22" y1="410.34" x2="531.82" y2="108.74"/><line class="cls-5" x1="245.24" y1="425.35" x2="546.84" y2="123.75"/><line class="cls-5" x1="260.26" y1="440.37" x2="561.86" y2="138.77"/><line class="cls-5" x1="275.27" y1="455.39" x2="576.87" y2="153.79"/><line class="cls-5" x1="290.29" y1="470.41" x2="591.89" y2="168.81"/><line class="cls-5" x1="305.31" y1="485.42" x2="606.91" y2="183.82"/><line class="cls-5" x1="320.33" y1="500.44" x2="621.93" y2="198.84"/><line class="cls-5" x1="335.34" y1="515.46" x2="636.94" y2="213.86"/><line class="cls-5" x1="350.36" y1="530.48" x2="651.96" y2="228.88"/><line class="cls-5" x1="365.38" y1="545.49" x2="666.98" y2="243.89"/><line class="cls-5" x1="380.4" y1="560.51" x2="682" y2="258.91"/><line class="cls-5" x1="395.41" y1="575.53" x2="697.01" y2="273.93"/><line class="cls-5" x1="410.43" y1="590.55" x2="712.03" y2="288.95"/><line class="cls-5" x1="425.45" y1="605.56" x2="727.05" y2="303.96"/><line class="cls-5" x1="440.47" y1="620.58" x2="742.07" y2="318.98"/><line class="cls-5" x1="455.48" y1="635.6" x2="757.08" y2="334"/><line class="cls-5" x1="470.5" y1="650.62" x2="772.1" y2="349.02"/><line class="cls-5" x1="485.52" y1="665.63" x2="787.12" y2="364.03"/><line class="cls-5" x1="500.54" y1="680.65" x2="802.14" y2="379.05"/><line class="cls-5" x1="515.55" y1="695.67" x2="817.15" y2="394.07"/><line class="cls-5" x1="530.57" y1="710.69" x2="832.17" y2="409.09"/></g><g class="cls-6"><line class="cls-5" x1="2026.28" y1="724.15" x2="1724.68" y2="422.55"/><line class="cls-5" x1="2041.3" y1="709.13" x2="1739.7" y2="407.53"/><line class="cls-5" x1="2056.31" y1="694.12" x2="1754.71" y2="392.51"/><line class="cls-5" x1="2071.33" y1="679.1" x2="1769.73" y2="377.5"/><line class="cls-5" x1="2086.35" y1="664.08" x2="1784.75" y2="362.48"/><line class="cls-5" x1="2101.37" y1="649.06" x2="1799.77" y2="347.46"/><line class="cls-5" x1="2116.38" y1="634.05" x2="1814.78" y2="332.45"/><line class="cls-5" x1="2131.4" y1="619.03" x2="1829.8" y2="317.43"/><line class="cls-5" x1="2146.42" y1="604.01" x2="1844.82" y2="302.41"/><line class="cls-5" x1="2161.44" y1="588.99" x2="1859.84" y2="287.39"/><line class="cls-5" x1="2176.45" y1="573.98" x2="1874.85" y2="272.38"/><line class="cls-5" x1="2191.47" y1="558.96" x2="1889.87" y2="257.36"/><line class="cls-5" x1="2206.49" y1="543.94" x2="1904.89" y2="242.34"/><line class="cls-5" x1="2221.51" y1="528.92" x2="1919.91" y2="227.32"/><line class="cls-5" x1="2236.52" y1="513.91" x2="1934.92" y2="212.31"/><line class="cls-5" x1="2251.54" y1="498.89" x2="1949.94" y2="197.29"/><line class="cls-5" x1="2266.56" y1="483.87" x2="1964.96" y2="182.27"/><line class="cls-5" x1="2281.58" y1="468.85" x2="1979.98" y2="167.25"/><line class="cls-5" x1="2296.59" y1="453.84" x2="1994.99" y2="152.24"/><line class="cls-5" x1="2311.61" y1="438.82" x2="2010.01" y2="137.22"/><line class="cls-5" x1="2326.63" y1="423.8" x2="2025.03" y2="122.2"/><line class="cls-5" x1="2341.65" y1="408.78" x2="2040.05" y2="107.18"/><line class="cls-5" x1="2356.66" y1="393.77" x2="2055.06" y2="92.17"/></g><g class="cls-7"><line class="cls-8" x1="1.06" y1="351.79" x2="302.66" y2="50.19"/><line class="cls-8" x1="16.08" y1="366.8" x2="317.68" y2="65.2"/><line class="cls-8" x1="31.1" y1="381.82" x2="332.7" y2="80.22"/><line class="cls-8" x1="46.11" y1="396.84" x2="347.71" y2="95.24"/><line class="cls-8" x1="61.13" y1="411.86" x2="362.73" y2="110.26"/><line class="cls-8" x1="76.15" y1="426.87" x2="377.75" y2="125.27"/><line class="cls-8" x1="91.17" y1="441.89" x2="392.77" y2="140.29"/><line class="cls-8" x1="106.18" y1="456.91" x2="407.78" y2="155.31"/><line class="cls-8" x1="121.2" y1="471.93" x2="422.8" y2="170.33"/><line class="cls-8" x1="136.22" y1="486.94" x2="437.82" y2="185.34"/><line class="cls-8" x1="151.24" y1="501.96" x2="452.84" y2="200.36"/><line class="cls-8" x1="166.25" y1="516.98" x2="467.85" y2="215.38"/><line class="cls-8" x1="181.27" y1="532" x2="482.87" y2="230.4"/><line class="cls-8" x1="196.29" y1="547.01" x2="497.89" y2="245.41"/><line class="cls-8" x1="211.31" y1="562.03" x2="512.91" y2="260.43"/><line class="cls-8" x1="226.32" y1="577.05" x2="527.92" y2="275.45"/><line class="cls-8" x1="241.34" y1="592.07" x2="542.94" y2="290.46"/><line class="cls-8" x1="256.36" y1="607.08" x2="557.96" y2="305.48"/><line class="cls-8" x1="271.38" y1="622.1" x2="572.98" y2="320.5"/><line class="cls-8" x1="286.39" y1="637.12" x2="587.99" y2="335.52"/><line class="cls-8" x1="301.41" y1="652.14" x2="603.01" y2="350.53"/><line class="cls-8" x1="316.43" y1="667.15" x2="618.03" y2="365.55"/><line class="cls-8" x1="331.45" y1="682.17" x2="633.05" y2="380.57"/></g><circle class="cls-9" cx="1750.38" cy="151.75" r="30"/><circle class="cls-10" cx="1663.57" cy="151.75" r="30"/><circle class="cls-11" cx="1837.19" cy="151.75" r="30"/><circle class="cls-12" cx="1924" cy="151.75" r="30"/><circle class="cls-13" cx="239.05" cy="184.41" r="55.05"/></g></g></g></svg>