<svg xmlns="http://www.w3.org/2000/svg" xmlns:xlink="http://www.w3.org/1999/xlink" viewBox="0 0 1920 1080"><defs><style>.cls-1,.cls-5,.cls-8{fill:none;}.cls-2{fill:#a3dee3;}.cls-3{fill:#65c8d0;}.cls-4{clip-path:url(#clip-path);}.cls-5{stroke:#dd835a;stroke-width:4.89px;}.cls-5,.cls-8{stroke-miterlimit:10;}.cls-6{clip-path:url(#clip-path-2);}.cls-7{clip-path:url(#clip-path-3);}.cls-8{stroke:#fff;stroke-width:4.82px;}</style><clipPath id="clip-path"><circle class="cls-1" cx="426.55" cy="689.95" r="306.89"/></clipPath><clipPath id="clip-path-2"><circle class="cls-1" cx="1492.77" cy="426.84" r="306.89"/></clipPath><clipPath id="clip-path-3"><circle class="cls-1" cx="206.08" cy="449.32" r="302.55"/></clipPath></defs><g id="foundation"><rect class="cls-2" width="1920" height="1080"/></g><g id="not_yet" data-name="not yet"><rect class="cls-3" x="0.17" y="293.14" width="1919.66" height="493.71"/><g class="cls-4"><line class="cls-5" x1="-63.55" y1="690.97" x2="427.57" y2="199.84"/><line class="cls-5" x1="-39.1" y1="715.42" x2="452.02" y2="224.3"/><line class="cls-5" x1="-14.64" y1="739.87" x2="476.48" y2="248.75"/><line class="cls-5" x1="9.81" y1="764.33" x2="500.93" y2="273.21"/><line class="cls-5" x1="34.26" y1="788.78" x2="525.39" y2="297.66"/><line class="cls-5" x1="58.72" y1="813.24" x2="549.84" y2="322.12"/><line class="cls-5" x1="83.17" y1="837.69" x2="574.29" y2="346.57"/><line class="cls-5" x1="107.63" y1="862.15" x2="598.75" y2="371.02"/><line class="cls-5" x1="132.08" y1="886.6" x2="623.2" y2="395.48"/><line class="cls-5" x1="156.53" y1="911.05" x2="647.66" y2="419.93"/><line class="cls-5" x1="180.99" y1="935.51" x2="672.11" y2="444.39"/><line class="cls-5" x1="205.44" y1="959.96" x2="696.56" y2="468.84"/><line class="cls-5" x1="229.9" y1="984.42" x2="721.02" y2="493.29"/><line class="cls-5" x1="254.35" y1="1008.87" x2="745.47" y2="517.75"/><line class="cls-5" x1="278.81" y1="1033.32" x2="769.93" y2="542.2"/><line class="cls-5" x1="303.26" y1="1057.78" x2="794.38" y2="566.66"/><line class="cls-5" x1="327.71" y1="1082.23" x2="818.84" y2="591.11"/><line class="cls-5" x1="352.17" y1="1106.69" x2="843.29" y2="615.57"/><line class="cls-5" x1="376.62" y1="1131.14" x2="867.74" y2="640.02"/><line class="cls-5" x1="401.08" y1="1155.6" x2="892.2" y2="664.47"/><line class="cls-5" x1="425.53" y1="1180.05" x2="916.65" y2="688.93"/><line class="cls-5" x1="449.98" y1="1204.5" x2="941.11" y2="713.38"/><line class="cls-5" x1="474.44" y1="1228.96" x2="965.56" y2="737.84"/></g><g class="cls-6"><line class="cls-5" x1="1002.67" y1="427.86" x2="1493.79" y2="-63.27"/><line class="cls-5" x1="1027.12" y1="452.31" x2="1518.24" y2="-38.81"/><line class="cls-5" x1="1051.58" y1="476.76" x2="1542.7" y2="-14.36"/><line class="cls-5" x1="1076.03" y1="501.22" x2="1567.15" y2="10.1"/><line class="cls-5" x1="1100.48" y1="525.67" x2="1591.61" y2="34.55"/><line class="cls-5" x1="1124.94" y1="550.13" x2="1616.06" y2="59.01"/><line class="cls-5" x1="1149.39" y1="574.58" x2="1640.51" y2="83.46"/><line class="cls-5" x1="1173.85" y1="599.03" x2="1664.97" y2="107.91"/><line class="cls-5" x1="1198.3" y1="623.49" x2="1689.42" y2="132.37"/><line class="cls-5" x1="1222.75" y1="647.94" x2="1713.88" y2="156.82"/><line class="cls-5" x1="1247.21" y1="672.4" x2="1738.33" y2="181.28"/><line class="cls-5" x1="1271.66" y1="696.85" x2="1762.78" y2="205.73"/><line class="cls-5" x1="1296.12" y1="721.31" x2="1787.24" y2="230.18"/><line class="cls-5" x1="1320.57" y1="745.76" x2="1811.69" y2="254.64"/><line class="cls-5" x1="1345.03" y1="770.21" x2="1836.15" y2="279.09"/><line class="cls-5" x1="1369.48" y1="794.67" x2="1860.6" y2="303.55"/><line class="cls-5" x1="1393.93" y1="819.12" x2="1885.06" y2="328"/><line class="cls-5" x1="1418.39" y1="843.58" x2="1909.51" y2="352.46"/><line class="cls-5" x1="1442.84" y1="868.03" x2="1933.96" y2="376.91"/><line class="cls-5" x1="1467.3" y1="892.49" x2="1958.42" y2="401.36"/><line class="cls-5" x1="1491.75" y1="916.94" x2="1982.87" y2="425.82"/><line class="cls-5" x1="1516.21" y1="941.39" x2="2007.33" y2="450.27"/><line class="cls-5" x1="1540.66" y1="965.85" x2="2031.78" y2="474.73"/></g><g class="cls-7"><line class="cls-8" x1="-277.1" y1="450.32" x2="207.09" y2="-33.86"/><line class="cls-8" x1="-252.99" y1="474.43" x2="231.19" y2="-9.75"/><line class="cls-8" x1="-228.88" y1="498.54" x2="255.3" y2="14.36"/><line class="cls-8" x1="-204.77" y1="522.65" x2="279.41" y2="38.47"/><line class="cls-8" x1="-180.66" y1="546.76" x2="303.52" y2="62.58"/><line class="cls-8" x1="-156.55" y1="570.87" x2="327.63" y2="86.69"/><line class="cls-8" x1="-132.44" y1="594.98" x2="351.74" y2="110.79"/><line class="cls-8" x1="-108.33" y1="619.08" x2="375.85" y2="134.9"/><line class="cls-8" x1="-84.23" y1="643.19" x2="399.95" y2="159.01"/><line class="cls-8" x1="-60.12" y1="667.3" x2="424.06" y2="183.12"/><line class="cls-8" x1="-36.01" y1="691.41" x2="448.17" y2="207.23"/><line class="cls-8" x1="-11.9" y1="715.52" x2="472.28" y2="231.34"/><line class="cls-8" x1="12.21" y1="739.63" x2="496.39" y2="255.45"/><line class="cls-8" x1="36.32" y1="763.74" x2="520.5" y2="279.55"/><line class="cls-8" x1="60.43" y1="787.84" x2="544.61" y2="303.66"/><line class="cls-8" x1="84.53" y1="811.95" x2="568.72" y2="327.77"/><line class="cls-8" x1="108.64" y1="836.06" x2="592.82" y2="351.88"/><line class="cls-8" x1="132.75" y1="860.17" x2="616.93" y2="375.99"/><line class="cls-8" x1="156.86" y1="884.28" x2="641.04" y2="400.1"/><line class="cls-8" x1="180.97" y1="908.39" x2="665.15" y2="424.21"/><line class="cls-8" x1="205.08" y1="932.5" x2="689.26" y2="448.31"/><line class="cls-8" x1="229.19" y1="956.6" x2="713.37" y2="472.42"/><line class="cls-8" x1="253.29" y1="980.71" x2="737.48" y2="496.53"/></g></g></svg>