<svg xmlns="http://www.w3.org/2000/svg" xmlns:xlink="http://www.w3.org/1999/xlink" viewBox="0 0 1920 1080"><defs><style>.cls-1,.cls-5,.cls-7{fill:none;}.cls-2{fill:#fef9e3;}.cls-3{fill:#fdf1b9;}.cls-4{clip-path:url(#clip-path);}.cls-5{stroke:#65c8d0;}.cls-5,.cls-7{stroke-miterlimit:10;stroke-width:3.82px;}.cls-6{clip-path:url(#clip-path-2);}.cls-7{stroke:#dd8860;}.cls-8{clip-path:url(#clip-path-3);}</style><clipPath id="clip-path"><circle class="cls-1" cx="315.45" cy="740.72" r="240.04"/></clipPath><clipPath id="clip-path-2"><circle class="cls-1" cx="367.15" cy="590.83" r="240.04"/></clipPath><clipPath id="clip-path-3"><circle class="cls-1" cx="1574.96" cy="374.34" r="240.04"/></clipPath></defs><g id="foundation"><rect class="cls-2" width="1920" height="1080"/></g><g id="bg"><rect class="cls-3" x="0.17" y="293.14" width="1919.66" height="493.71"/><g class="cls-4"><line class="cls-5" x1="-67.88" y1="741.51" x2="316.25" y2="357.38"/><line class="cls-5" x1="-48.76" y1="760.64" x2="335.38" y2="376.51"/><line class="cls-5" x1="-29.63" y1="779.77" x2="354.5" y2="395.64"/><line class="cls-5" x1="-10.5" y1="798.9" x2="373.63" y2="414.76"/><line class="cls-5" x1="8.62" y1="818.02" x2="392.76" y2="433.89"/><line class="cls-5" x1="27.75" y1="837.15" x2="411.88" y2="453.02"/><line class="cls-5" x1="46.88" y1="856.28" x2="431.01" y2="472.14"/><line class="cls-5" x1="66" y1="875.4" x2="450.14" y2="491.27"/><line class="cls-5" x1="85.13" y1="894.53" x2="469.26" y2="510.4"/><line class="cls-5" x1="104.26" y1="913.66" x2="488.39" y2="529.52"/><line class="cls-5" x1="123.38" y1="932.78" x2="507.52" y2="548.65"/><line class="cls-5" x1="142.51" y1="951.91" x2="526.65" y2="567.78"/><line class="cls-5" x1="161.64" y1="971.04" x2="545.77" y2="586.91"/><line class="cls-5" x1="180.77" y1="990.17" x2="564.9" y2="606.03"/><line class="cls-5" x1="199.89" y1="1009.29" x2="584.03" y2="625.16"/><line class="cls-5" x1="219.02" y1="1028.42" x2="603.15" y2="644.29"/><line class="cls-5" x1="238.15" y1="1047.55" x2="622.28" y2="663.41"/><line class="cls-5" x1="257.27" y1="1066.67" x2="641.41" y2="682.54"/><line class="cls-5" x1="276.4" y1="1085.8" x2="660.53" y2="701.67"/><line class="cls-5" x1="295.53" y1="1104.93" x2="679.66" y2="720.79"/><line class="cls-5" x1="314.65" y1="1124.05" x2="698.79" y2="739.92"/><line class="cls-5" x1="333.78" y1="1143.18" x2="717.91" y2="759.05"/><line class="cls-5" x1="352.91" y1="1162.31" x2="737.04" y2="778.17"/></g><g class="cls-6"><line class="cls-7" x1="-16.19" y1="591.63" x2="367.94" y2="207.5"/><line class="cls-7" x1="2.94" y1="610.76" x2="387.07" y2="226.63"/><line class="cls-7" x1="22.07" y1="629.89" x2="406.2" y2="245.75"/><line class="cls-7" x1="41.19" y1="649.01" x2="425.33" y2="264.88"/><line class="cls-7" x1="60.32" y1="668.14" x2="444.45" y2="284.01"/><line class="cls-7" x1="79.45" y1="687.27" x2="463.58" y2="303.13"/><line class="cls-7" x1="98.57" y1="706.39" x2="482.71" y2="322.26"/><line class="cls-7" x1="117.7" y1="725.52" x2="501.83" y2="341.39"/><line class="cls-7" x1="136.83" y1="744.65" x2="520.96" y2="360.51"/><line class="cls-7" x1="155.95" y1="763.77" x2="540.09" y2="379.64"/><line class="cls-7" x1="175.08" y1="782.9" x2="559.21" y2="398.77"/><line class="cls-7" x1="194.21" y1="802.03" x2="578.34" y2="417.89"/><line class="cls-7" x1="213.34" y1="821.15" x2="597.47" y2="437.02"/><line class="cls-7" x1="232.46" y1="840.28" x2="616.6" y2="456.15"/><line class="cls-7" x1="251.59" y1="859.41" x2="635.72" y2="475.28"/><line class="cls-7" x1="270.72" y1="878.54" x2="654.85" y2="494.4"/><line class="cls-7" x1="289.84" y1="897.66" x2="673.98" y2="513.53"/><line class="cls-7" x1="308.97" y1="916.79" x2="693.1" y2="532.66"/><line class="cls-7" x1="328.1" y1="935.92" x2="712.23" y2="551.78"/><line class="cls-7" x1="347.22" y1="955.04" x2="731.36" y2="570.91"/><line class="cls-7" x1="366.35" y1="974.17" x2="750.48" y2="590.04"/><line class="cls-7" x1="385.48" y1="993.3" x2="769.61" y2="609.16"/><line class="cls-7" x1="404.6" y1="1012.42" x2="788.74" y2="628.29"/></g><g class="cls-8"><line class="cls-5" x1="1191.62" y1="375.14" x2="1575.75" y2="-8.99"/><line class="cls-5" x1="1210.75" y1="394.27" x2="1594.88" y2="10.13"/><line class="cls-5" x1="1229.87" y1="413.39" x2="1614.01" y2="29.26"/><line class="cls-5" x1="1249" y1="432.52" x2="1633.13" y2="48.39"/><line class="cls-5" x1="1268.13" y1="451.65" x2="1652.26" y2="67.52"/><line class="cls-5" x1="1287.26" y1="470.78" x2="1671.39" y2="86.64"/><line class="cls-5" x1="1306.38" y1="489.9" x2="1690.52" y2="105.77"/><line class="cls-5" x1="1325.51" y1="509.03" x2="1709.64" y2="124.9"/><line class="cls-5" x1="1344.64" y1="528.16" x2="1728.77" y2="144.02"/><line class="cls-5" x1="1363.76" y1="547.28" x2="1747.9" y2="163.15"/><line class="cls-5" x1="1382.89" y1="566.41" x2="1767.02" y2="182.28"/><line class="cls-5" x1="1402.02" y1="585.54" x2="1786.15" y2="201.4"/><line class="cls-5" x1="1421.14" y1="604.66" x2="1805.28" y2="220.53"/><line class="cls-5" x1="1440.27" y1="623.79" x2="1824.4" y2="239.66"/><line class="cls-5" x1="1459.4" y1="642.92" x2="1843.53" y2="258.78"/><line class="cls-5" x1="1478.52" y1="662.04" x2="1862.66" y2="277.91"/><line class="cls-5" x1="1497.65" y1="681.17" x2="1881.78" y2="297.04"/><line class="cls-5" x1="1516.78" y1="700.3" x2="1900.91" y2="316.17"/><line class="cls-5" x1="1535.91" y1="719.43" x2="1920.04" y2="335.29"/><line class="cls-5" x1="1555.03" y1="738.55" x2="1939.17" y2="354.42"/><line class="cls-5" x1="1574.16" y1="757.68" x2="1958.29" y2="373.55"/><line class="cls-5" x1="1593.29" y1="776.81" x2="1977.42" y2="392.67"/><line class="cls-5" x1="1612.41" y1="795.93" x2="1996.55" y2="411.8"/></g></g></svg>