<svg xmlns="http://www.w3.org/2000/svg" viewBox="0 0 60 60"><defs><style>.cls-1{fill:#dd835a;}.cls-2{fill:#65c8d0;}.cls-3,.cls-5{fill:none;stroke-linecap:round;stroke-width:2.08px;}.cls-3{stroke:#dd835a;stroke-miterlimit:10;}.cls-4{fill:#fdf1b9;}.cls-5{stroke:#fdf1b9;stroke-linejoin:round;}</style></defs><g id="not_yet" data-name="not yet"><circle class="cls-1" cx="15" cy="45" r="15"/><circle class="cls-2" cx="30" cy="30" r="30"/><path class="cls-3" d="M27.21,21.91c.84-14.75,12.52-21,11.36,0"/><path class="cls-1" d="M25.44,51.58h17A2.54,2.54,0,0,0,45,49.05L41.89,24.44a2.53,2.53,0,0,0-2.53-2.53h-17a2.54,2.54,0,0,0-2.54,2.53l3.11,24.61A2.53,2.53,0,0,0,25.44,51.58Z"/><path class="cls-4" d="M34.56,51.58h-17A2.54,2.54,0,0,1,15,49.05l3.11-24.61a2.53,2.53,0,0,1,2.53-2.53h17a2.54,2.54,0,0,1,2.54,2.53L37.09,49.05A2.53,2.53,0,0,1,34.56,51.58Z"/><path class="cls-5" d="M24.13,21.91c.85-14.75,12.53-21,11.36,0"/></g></svg>