<svg xmlns="http://www.w3.org/2000/svg" viewBox="0 0 153.38 150"><defs><style>.cls-1{fill:#65c8d0;}.cls-2{fill:#fdf1b9;}.cls-3{fill:#666;}</style></defs><g id="icons"><ellipse class="cls-1" cx="76.69" cy="75" rx="76.69" ry="75"/><path class="cls-2" d="M141.33,98.87a2.31,2.31,0,0,1-2.14-1.42c-.35-.85-.69-1.7-1-2.56l-.21-.52c-4.27.33-8.38.39-11.51.41-3.33,0-7.69-.08-12.14-.45-.45,1-.9,2.11-1.36,3.16a2.32,2.32,0,0,1-2.12,1.37,2.29,2.29,0,0,1-2.21-2.93c.88-2.85,2.06-6.62,3.39-10.46l.34-1c1-3.07,2.13-6.24,3.26-9.35,2.1-5.89,4.29-11.68,6.41-17.28l1.23-3.25a3,3,0,0,1,3.87-1.76,3,3,0,0,1,1.79,1.76l3.77,10.29,3.68,10.32c1.65,4.62,3.39,9.61,5.47,15.71h0s1.42,4.15,1.7,5a2.19,2.19,0,0,1-.12,1.72,2.3,2.3,0,0,1-1.35,1.15A2.51,2.51,0,0,1,141.33,98.87ZM126.11,64.23c-1.53,4.18-3.16,8.59-4.84,12.92-1.19,3.11-2.45,6.23-3.67,9.25l-.39.94c-.3.76-.6,1.52-.91,2.27,2.93-.19,6.1-.28,10.13-.3,3.81,0,6.8.11,9.59.27-1.86-4.62-3.44-8.61-4.94-12.51l-4-10.19Z"/><path class="cls-3" d="M126.07,53.14a2.57,2.57,0,0,1,.87.15,2.48,2.48,0,0,1,1.5,1.47L132.2,65l3.68,10.32c1.66,4.65,3.4,9.65,5.47,15.7,0,0,1.42,4.15,1.7,5a1.76,1.76,0,0,1-1.15,2.23,1.88,1.88,0,0,1-.57.09,1.8,1.8,0,0,1-1.68-1.11c-.35-.87-.71-1.74-1.06-2.62l-.32-.79c-4.38.35-8.61.41-11.83.43-3.42,0-7.9-.08-12.45-.48-.5,1.17-1,2.33-1.51,3.49a1.82,1.82,0,0,1-2.38.92,1.76,1.76,0,0,1-1-2.13c.89-2.87,2.07-6.64,3.39-10.45l.3-.88c1.06-3.11,2.15-6.32,3.3-9.47,2.08-5.83,4.28-11.65,6.41-17.28l1.23-3.25a2.52,2.52,0,0,1,2.36-1.61m-10.55,37c3.16-.23,6.57-.34,10.91-.36,4.1,0,7.34.12,10.35.32-2-5-3.69-9.24-5.24-13.24l-4-10.2-1.47-3.89c-1.76,4.78-3.49,9.49-5.31,14.17-1.18,3.09-2.45,6.22-3.67,9.24l-.38,1c-.4,1-.81,2-1.23,3m10.55-38a3.55,3.55,0,0,0-3.3,2.26l-1.22,3.25c-2.14,5.63-4.34,11.45-6.42,17.29-1.15,3.15-2.24,6.35-3.29,9.45l-.31.92c-1.33,3.83-2.52,7.61-3.4,10.47a2.76,2.76,0,0,0,1.58,3.36,3,3,0,0,0,1.11.22,2.83,2.83,0,0,0,2.58-1.67c.41-1,.82-1.89,1.22-2.83,4.35.35,8.57.41,11.82.42,3.05,0,7-.08,11.18-.38l0,.12.07.18c.33.82.65,1.63,1,2.44a2.79,2.79,0,0,0,2.6,1.73,2.87,2.87,0,0,0,.87-.13,2.78,2.78,0,0,0,1.65-1.41,2.73,2.73,0,0,0,.15-2.1c-.28-.84-1.71-5-1.71-5-2.07-6.1-3.81-11.09-5.47-15.72L133.15,64.7l-3.78-10.29a3.49,3.49,0,0,0-2.09-2.06,3.58,3.58,0,0,0-1.21-.21Zm-9,36.92c.21-.51.42-1,.62-1.53l.38-.94c1.16-2.87,2.48-6.13,3.67-9.27,1.46-3.75,2.85-7.46,4.39-11.66l.53,1.39,4,10.21c1.41,3.63,2.9,7.41,4.65,11.78-2.57-.14-5.37-.21-8.82-.23-3.69,0-6.65.09-9.38.25Z"/><path class="cls-2" d="M72.38,65a3.33,3.33,0,0,1-2.06-5.92l1-3a.48.48,0,0,1,.43-.34h0a.49.49,0,0,1,.44.26l.67,1.23.38.75.19.38h0l.19-.37c.13-.25.25-.51.39-.76L74.73,56a.51.51,0,0,1,.44-.26h0a.51.51,0,0,1,.44.34l1,3A3.33,3.33,0,0,1,74.59,65Z"/><path class="cls-3" d="M75.17,56.22l1,3.14h0a2.83,2.83,0,0,1-1.62,5.13H72.38a2.83,2.83,0,0,1-1.61-5.14h0l1-3.14.66,1.23c.14.25.26.5.39.75l.32.64h.63l.32-.64.39-.75.66-1.23m0-1a1,1,0,0,0-.88.52L73.63,57a2.15,2.15,0,0,0-.14.26L73.34,57l-.66-1.23a1,1,0,0,0-.88-.52h-.08a1,1,0,0,0-.87.68l-1,2.89a3.83,3.83,0,0,0,2.49,6.71h2.21a3.82,3.82,0,0,0,2.49-6.71l-1-2.89a1,1,0,0,0-.86-.68Z"/><path class="cls-2" d="M32.74,99.14a28.88,28.88,0,0,1-7-.9,21.38,21.38,0,0,1-8.91-4.72A20.33,20.33,0,0,1,11.28,85,30.4,30.4,0,0,1,9.74,75.6,30.79,30.79,0,0,1,11.29,66,20.38,20.38,0,0,1,16.8,57.5a21.21,21.21,0,0,1,8.88-4.69,28.49,28.49,0,0,1,7.06-.91c.83,0,1.67,0,2.51.12a2.34,2.34,0,0,1,1.56.81,2.22,2.22,0,0,1,.52,1.67,2.29,2.29,0,0,1-2.07,2C31,57,25.2,58.3,21.46,62.19S17,71.54,17,75.53,17.8,85,21.46,88.85,31,94.07,35.26,94.5a2.24,2.24,0,0,1,1.55.81A2.2,2.2,0,0,1,37.33,97a2.3,2.3,0,0,1-2.06,2C34.44,99.1,33.59,99.14,32.74,99.14Z"/><path class="cls-3" d="M32.74,52.4c.82,0,1.65,0,2.46.12a1.82,1.82,0,0,1,1.23.64,1.69,1.69,0,0,1,.4,1.29,1.8,1.8,0,0,1-1.62,1.6c-4.31.44-10.27,1.8-14.11,5.79s-4.58,9.61-4.6,13.68.82,9.75,4.6,13.68S30.9,94.56,35.21,95a1.81,1.81,0,0,1,1.22.64,1.69,1.69,0,0,1,.4,1.29,1.8,1.8,0,0,1-1.62,1.6c-.82.08-1.65.12-2.47.12a27.78,27.78,0,0,1-6.92-.89,20.76,20.76,0,0,1-8.71-4.6,20,20,0,0,1-5.36-8.28,30.28,30.28,0,0,1-1.51-9.29,30.6,30.6,0,0,1,1.51-9.42,20,20,0,0,1,5.38-8.28,20.64,20.64,0,0,1,8.67-4.59,28.05,28.05,0,0,1,6.94-.89m0-1a28.92,28.92,0,0,0-7.18.92,21.79,21.79,0,0,0-9.11,4.82,21,21,0,0,0-5.64,8.68,31.41,31.41,0,0,0-1.57,9.71v.1a30.83,30.83,0,0,0,1.57,9.59,21,21,0,0,0,5.64,8.68,21.9,21.9,0,0,0,9.11,4.82,28.92,28.92,0,0,0,7.18.92c.86,0,1.73,0,2.57-.13A2.8,2.8,0,0,0,37.83,97a2.73,2.73,0,0,0-.64-2,2.83,2.83,0,0,0-1.88-1c-4.15-.42-9.85-1.72-13.49-5.49s-4.3-9.1-4.32-13,.77-9.3,4.32-13,9.34-5.08,13.49-5.5a2.8,2.8,0,0,0,2.52-2.49,2.73,2.73,0,0,0-.64-2,2.8,2.8,0,0,0-1.89-1c-.85-.07-1.71-.12-2.56-.12Z"/><path class="cls-2" d="M85.69,99H85.5a2.29,2.29,0,0,1-2-2A175.67,175.67,0,0,1,82.71,75c0-4,.12-7.64.24-11.07s.26-7.16.5-11a2.31,2.31,0,0,1,4.61,0c.24,3.79.41,7.48.5,11s.2,7,.24,10.93l0,1.88C90,75.57,91.14,74.33,92.43,73a61.2,61.2,0,0,1,8-7.12,2.15,2.15,0,0,1,3,.48,2.09,2.09,0,0,1,0,2.44,60.55,60.55,0,0,1-7.23,7.8c-1.76,1.66-3.52,3.25-5.26,4.76,2,1.68,4.08,3.57,6.4,5.76A60.71,60.71,0,0,1,104.63,95a2,2,0,0,1,.37,1.55,2.12,2.12,0,0,1-.86,1.37,2.2,2.2,0,0,1-2.46,0,60.65,60.65,0,0,1-8-7.07c-1.86-1.88-3.47-3.58-4.92-5.17-.1,4.28-.33,7.89-.72,11.26a2.3,2.3,0,0,1-2.3,2Z"/><path class="cls-3" d="M85.76,51.37A1.81,1.81,0,0,1,87.56,53c.25,3.79.41,7.47.5,11s.2,7,.24,10.93c0,1,0,2.1,0,3.14,1.39-1.52,2.87-3.07,4.47-4.69a59.91,59.91,0,0,1,8-7.06,1.67,1.67,0,0,1,.94-.3,1.65,1.65,0,0,1,1.33.67,1.56,1.56,0,0,1,0,1.84,59.82,59.82,0,0,1-7.19,7.76Q93,79,90.17,81.38c2.12,1.78,4.32,3.75,6.83,6.12a60,60,0,0,1,7.22,7.79,1.58,1.58,0,0,1-.37,2.22,1.69,1.69,0,0,1-.95.29,1.66,1.66,0,0,1-.94-.29,58.9,58.9,0,0,1-7.92-7c-2.21-2.24-4.07-4.2-5.74-6.08a120.7,120.7,0,0,1-.74,12.48,1.8,1.8,0,0,1-1.8,1.57h-.21A1.78,1.78,0,0,1,84,96.89,174.58,174.58,0,0,1,83.21,75c0-4,.12-7.6.24-11.05s.26-7.16.5-10.95a1.8,1.8,0,0,1,1.81-1.66m0-1A2.81,2.81,0,0,0,83,53c-.24,3.81-.41,7.5-.5,11s-.2,7-.24,11.07A176.78,176.78,0,0,0,83,97a2.78,2.78,0,0,0,2.48,2.43l.16,0h.16A2.79,2.79,0,0,0,88.55,97c.36-3.06.58-6.31.7-10.07,1.23,1.33,2.58,2.74,4.08,4.26a61.07,61.07,0,0,0,8.06,7.13,2.68,2.68,0,0,0,3,0A2.58,2.58,0,0,0,105,94.7a61,61,0,0,0-7.34-7.92c-2.2-2.07-4.12-3.81-6-5.41,1.6-1.39,3.22-2.86,4.81-4.37a59.26,59.26,0,0,0,7.31-7.89,2.58,2.58,0,0,0,0-3A2.69,2.69,0,0,0,101.69,65a2.63,2.63,0,0,0-1.51.48,61,61,0,0,0-8.1,7.18c-1,1-1.89,1.93-2.77,2.86v-.62c0-4-.12-7.53-.24-11s-.26-7.18-.5-11a2.82,2.82,0,0,0-2.75-2.6Z"/><path class="cls-2" d="M73.4,98.82l-.22,0A2.13,2.13,0,0,1,71.35,97a75.77,75.77,0,0,1-.58-12.62c0-2.3.1-4.36.19-6.29s.18-4,.37-6.26a2.17,2.17,0,0,1,2.16-2h.15a2.14,2.14,0,0,1,2,1.94c.19,2.22.31,4.27.38,6.28s.15,3.94.18,6.22A76.25,76.25,0,0,1,75.63,97a2.15,2.15,0,0,1-2.14,1.81Z"/><path class="cls-3" d="M73.49,70.39h.13a1.62,1.62,0,0,1,1.52,1.49c.19,2.21.31,4.25.38,6.25s.15,3.94.18,6.21a75,75,0,0,1-.57,12.58,1.64,1.64,0,0,1-1.64,1.39H73.4l-.16,0a1.64,1.64,0,0,1-1.4-1.37,75.71,75.71,0,0,1-.57-12.53c0-2.32.1-4.36.18-6.28s.19-4,.38-6.24a1.66,1.66,0,0,1,1.66-1.49m0-1a2.68,2.68,0,0,0-2.66,2.41c-.18,2.22-.31,4.28-.37,6.29s-.15,4-.19,6.29a77,77,0,0,0,.58,12.71,2.64,2.64,0,0,0,2.24,2.2l.2,0h.2a2.64,2.64,0,0,0,2.63-2.23,76.18,76.18,0,0,0,.58-12.74c0-2.3-.09-4.34-.18-6.26s-.19-4.06-.38-6.29a2.64,2.64,0,0,0-2.43-2.4h-.22Z"/><path class="cls-2" d="M47.52,98.94a2.28,2.28,0,0,1-2.06-2A175.57,175.57,0,0,1,44.71,75c0-4,.12-7.65.24-11.08s.26-7.16.5-11a2.3,2.3,0,0,1,2.3-2.13A2.34,2.34,0,0,1,50.06,53c.24,3.8.41,7.49.5,11,.07,2,.13,4.16.17,6.49l.2-.07a11.16,11.16,0,0,1,3.25-.56h.54a10.5,10.5,0,0,1,6,1.64,9.14,9.14,0,0,1,3.71,5.93,20.85,20.85,0,0,1,.24,5l-.19,5c-.06,1.49-.14,3-.26,4.74l0,.52c-.09,1.41-.18,2.81-.31,4.21a2.26,2.26,0,0,1-2.27,2h-.19a2.28,2.28,0,0,1-2.09-2c-.14-1.43-.23-2.88-.32-4.29l0-.45c-.12-1.72-.21-3.27-.26-4.73L58.55,82a17.78,17.78,0,0,0-.3-3.3,3.33,3.33,0,0,0-1.17-2,4.49,4.49,0,0,0-2.39-.49h-.3a4.31,4.31,0,0,0-2.56.6,4.5,4.5,0,0,0-1,1.13,156.5,156.5,0,0,1-.77,19,2.3,2.3,0,0,1-2.29,2Z"/><path class="cls-3" d="M47.75,51.36A1.81,1.81,0,0,1,49.56,53c.24,3.79.41,7.48.5,11,.08,2.23.14,4.62.18,7.24a8,8,0,0,1,.86-.36,10.63,10.63,0,0,1,3.11-.53h.51a10,10,0,0,1,5.74,1.56,8.62,8.62,0,0,1,3.5,5.6,21,21,0,0,1,.24,4.91l-.2,5c-.06,1.58-.15,3.15-.26,4.73l0,.52c-.09,1.4-.18,2.8-.31,4.2a1.76,1.76,0,0,1-1.77,1.59h-.17a1.77,1.77,0,0,1-1.62-1.58c-.13-1.43-.22-2.85-.31-4.28l0-.45c-.11-1.57-.2-3.14-.26-4.72L59.05,82a17.42,17.42,0,0,0-.32-3.41,3.74,3.74,0,0,0-1.37-2.28,4.93,4.93,0,0,0-2.67-.57h-.3a4.84,4.84,0,0,0-2.85.69,5.43,5.43,0,0,0-1.22,1.39,154.78,154.78,0,0,1-.76,19.08,1.81,1.81,0,0,1-1.8,1.58h-.21A1.81,1.81,0,0,1,46,96.89,176.62,176.62,0,0,1,45.21,75c0-4,.12-7.61.24-11.06s.26-7.16.5-10.95a1.79,1.79,0,0,1,1.8-1.66m0-1A2.8,2.8,0,0,0,45,53c-.24,3.81-.41,7.51-.5,11s-.2,7-.24,11.07A176.69,176.69,0,0,0,45,97a2.79,2.79,0,0,0,2.48,2.44h.32A2.79,2.79,0,0,0,50.55,97a156.93,156.93,0,0,0,.77-18.89,3.77,3.77,0,0,1,.8-.88,3.9,3.9,0,0,1,2.28-.51h.3a3.79,3.79,0,0,1,2.09.4,2.72,2.72,0,0,1,1,1.68A16.75,16.75,0,0,1,58.05,82l.2,5.44c0,1.46.14,3,.26,4.75l0,.44c.08,1.42.17,2.87.31,4.31a2.76,2.76,0,0,0,2.52,2.48h.22A2.77,2.77,0,0,0,64.4,97c.13-1.41.22-2.84.31-4.22l0-.53c.12-1.71.2-3.26.26-4.75l.19-5a21.42,21.42,0,0,0-.25-5.14A9.65,9.65,0,0,0,61,71.05a10.88,10.88,0,0,0-6.3-1.73h-.54a12.63,12.63,0,0,0-3,.44c0-2-.1-4-.16-5.82-.09-3.49-.26-7.19-.5-11a2.81,2.81,0,0,0-2.75-2.59Z"/></g></svg>