<svg xmlns="http://www.w3.org/2000/svg" viewBox="0 0 100.08 99.34"><defs><style>.cls-1{fill:#dd835a;}.cls-2{fill:#65c8d0;}.cls-3{fill:#fdf1b9;}</style></defs><g id="icons"><circle class="cls-1" cx="45.08" cy="54.27" r="45.08"/><circle class="cls-2" cx="55.08" cy="45" r="45"/><path class="cls-3" d="M74.92,33.76l.08-.07L68.7,14.4l-4,7.58c-.8,1.52-1.56,3.06-2.32,4.6l-1.94,4H56.69l-1.95-4C54,25,53.23,23.5,52.43,22l-4-7.58-6.3,19.29.12,0a17.39,17.39,0,0,0-7.2,14.2c0,9.59,7.57,17.4,16.88,17.4H65.2c9.31,0,16.88-7.81,16.88-17.4A17.41,17.41,0,0,0,74.92,33.76Z"/><path class="cls-3" d="M53.24,68.08a3.74,3.74,0,0,0-3.2,1.8A22.09,22.09,0,0,1,31.13,48H28.08A25.15,25.15,0,0,0,49.65,72.91a3.75,3.75,0,1,0,3.59-4.83Z"/></g></svg>